<svg xmlns="http://www.w3.org/2000/svg" viewBox="0 0 64 64" id="Chip">
  <circle cx="32" cy="14" r="1" fill="#77bc3f" class="color000000 svgShape"></circle>
  <circle cx="22" cy="14" r="1" fill="#77bc3f" class="color000000 svgShape"></circle>
  <circle cx="22" cy="50" r="1" fill="#77bc3f" class="color000000 svgShape"></circle>
  <circle cx="42" cy="14" r="1" fill="#77bc3f" class="color000000 svgShape"></circle>
  <circle cx="27" cy="38" r="1" fill="#77bc3f" class="color000000 svgShape"></circle>
  <rect width="3" height="3" x="57" y="17" fill="#77bc3f" class="color000000 svgShape"></rect>
  <circle cx="32" cy="50" r="1" fill="#77bc3f" class="color000000 svgShape"></circle>
  <circle cx="39" cy="25" r="1" fill="#77bc3f" class="color000000 svgShape"></circle>
  <circle cx="42" cy="50" r="1" fill="#77bc3f" class="color000000 svgShape"></circle>
  <rect width="3" height="3" x="57" y="37" fill="#77bc3f" class="color000000 svgShape"></rect>
  <circle cx="14" cy="42" r="1" fill="#77bc3f" class="color000000 svgShape"></circle>
  <rect width="3" height="3" x="57" y="27" fill="#77bc3f" class="color000000 svgShape"></rect>
  <rect width="3" height="3" x="57" y="47" fill="#77bc3f" class="color000000 svgShape"></rect>
  <circle cx="14" cy="32" r="1" fill="#77bc3f" class="color000000 svgShape"></circle>
  <circle cx="50" cy="42" r="1" fill="#77bc3f" class="color000000 svgShape"></circle>
  <circle cx="14" cy="22" r="1" fill="#77bc3f" class="color000000 svgShape"></circle>
  <circle cx="50" cy="32" r="1" fill="#77bc3f" class="color000000 svgShape"></circle>
  <circle cx="38" cy="35" r="1" fill="#77bc3f" class="color000000 svgShape"></circle>
  <rect width="3" height="3" x="38" y="4" fill="#77bc3f" class="color000000 svgShape"></rect>
  <rect width="3" height="3" x="28" y="4" fill="#77bc3f" class="color000000 svgShape"></rect>
  <rect width="3" height="3" x="18" y="4" fill="#77bc3f" class="color000000 svgShape"></rect>
  <rect width="3" height="3" x="48" y="4" fill="#77bc3f" class="color000000 svgShape"></rect>
  <rect width="3" height="3" x="4" y="47" fill="#77bc3f" class="color000000 svgShape"></rect>
  <rect width="3" height="3" x="4" y="37" fill="#77bc3f" class="color000000 svgShape"></rect>
  <rect width="3" height="3" x="18" y="57" fill="#77bc3f" class="color000000 svgShape"></rect>
  <circle cx="25" cy="27" r="1" fill="#77bc3f" class="color000000 svgShape"></circle>
  <rect width="3" height="3" x="4" y="17" fill="#77bc3f" class="color000000 svgShape"></rect>
  <rect width="3" height="3" x="4" y="27" fill="#77bc3f" class="color000000 svgShape"></rect>
  <rect width="3" height="3" x="48" y="57" fill="#77bc3f" class="color000000 svgShape"></rect>
  <path d="M55,9H15.37L9,14.46V55H55ZM14,45a3,3,0,1,1,3-3A3,3,0,0,1,14,45Zm3-13a3,3,0,1,1-4-2.816V24.816a3,3,0,1,1,2,0v4.368A3,3,0,0,1,17,32ZM53,42a3,3,0,1,1-4-2.816V34.816a3,3,0,1,1,2,0v4.368A3,3,0,0,1,53,42ZM50,25a3,3,0,0,1-2.816-2H45V44a1,1,0,0,1-1,1H43v2.184a3,3,0,1,1-2,0V45H33v2.184a3,3,0,1,1-2,0V45H23v2.184a3,3,0,1,1-2,0V45H20a1,1,0,0,1-1-1V20a1,1,0,0,1,1-1H31V16.816A3,3,0,0,1,29.184,15H24.816a3,3,0,1,1,0-2h4.368a2.982,2.982,0,0,1,5.632,0h4.368a3,3,0,1,1,0,2H34.816A3,3,0,0,1,33,16.816V19H44a1,1,0,0,1,1,1v1h2.184A2.995,2.995,0,1,1,50,25Z" fill="#77bc3f" class="color000000 svgShape"></path>
  <circle cx="50" cy="22" r="1" fill="#77bc3f" class="color000000 svgShape"></circle>
  <rect width="3" height="3" x="38" y="57" fill="#77bc3f" class="color000000 svgShape"></rect>
  <path d="M21,43H43V21H21Zm18-5.184V40a1,1,0,0,1-1,1H33a1,1,0,0,1-1-1V39H29.816a3,3,0,1,1,0-2H33a1,1,0,0,1,1,1v1h3V37.816a3,3,0,1,1,2,0ZM25,24a2.993,2.993,0,0,1,1,5.816V31h5V25a1,1,0,0,1,1-1h4.184a3,3,0,1,1,0,2H33v6a1,1,0,0,1-1,1H25a1,1,0,0,1-1-1V29.816A2.993,2.993,0,0,1,25,24Z" fill="#77bc3f" class="color000000 svgShape"></path>
  <rect width="3" height="3" x="28" y="57" fill="#77bc3f" class="color000000 svgShape"></rect>
</svg>
