<svg xmlns="http://www.w3.org/2000/svg" xml:space="preserve" id="ai" width="512" height="512" x="0" y="0" enable-background="new 0 0 512 512" version="1.1" viewBox="0 0 512 512">
  <g>
    <path fill="#E66A25" d="M378.791,42.453H132.208L8.917,256l123.291,213.548h246.583L502.083,256L378.791,42.453z M361.471,439.548   H149.529L43.558,256L149.529,72.453h211.942L467.442,256L361.471,439.548z"></path>
    <polygon fill="#26140C" points="361.699 72.058 149.301 72.058 43.102 256 149.301 439.942 361.699 439.942 467.898 256"></polygon>
    <g>
      <path fill="#E76A25" d="M261.421 313.417h-66.304l-12.605 37.816H142.3L210.621 167.7h35.043l68.699 183.534h-40.211L261.421 313.417zM205.327 282.786h45.883l-23.068-68.699L205.327 282.786zM328.859 179.549c0-5.462 1.827-9.958 5.482-13.488 3.656-3.529 8.635-5.294 14.938-5.294 6.219 0 11.176 1.765 14.875 5.294 3.696 3.529 5.546 8.026 5.546 13.488 0 5.546-1.871 10.084-5.609 13.614-3.74 3.529-8.678 5.294-14.812 5.294-6.135 0-11.072-1.765-14.811-5.294C330.729 189.633 328.859 185.095 328.859 179.549zM367.558 351.233h-36.556v-136.39h36.556V351.233z"></path>
    </g>
  </g>
</svg>
