<svg xmlns="http://www.w3.org/2000/svg" fill-rule="evenodd" stroke-linejoin="round" stroke-miterlimit="2" clip-rule="evenodd" viewBox="0 0 48 48" id="carEV">
  <path d="M19 40a3 3 0 0 0 3 3h4a3 3 0 0 0 3-3v-3a3 3 0 0 0-3-3h-4a3 3 0 0 0-3 3v3Z" fill="#77bc3f" class="color000000 svgShape"></path>
  <path d="M27 45v-3a1 1 0 0 0-2 0v3a1 1 0 0 0 2 0ZM23 45v-3a1 1 0 0 0-2 0v3a1 1 0 0 0 2 0ZM11.621 7.307l-1.685-.932A3 3 0 0 0 8.484 6H6.5A2.5 2.5 0 0 0 4 8.5v1A2.5 2.5 0 0 0 6.5 12h1.307l-.523.523A5 5 0 0 0 6 15.868V18a5.004 5.004 0 0 0 2 4v2c0 .796.316 1.559.879 2.121A2.996 2.996 0 0 0 11 27h1c.796 0 1.559-.316 2.121-.879A2.996 2.996 0 0 0 15 24v-1h18v1c0 .796.316 1.559.879 2.121A2.996 2.996 0 0 0 36 27h1c.796 0 1.559-.316 2.121-.879A2.996 2.996 0 0 0 40 24v-2a5.004 5.004 0 0 0 2-4v-2.132a5 5 0 0 0-1.284-3.345 12.14 12.14 0 0 0-.507-.523H41.5A2.5 2.5 0 0 0 44 9.5v-1A2.5 2.5 0 0 0 41.5 6h-1.984a3 3 0 0 0-1.452.375l-1.685.932-1.411-2.474A5.002 5.002 0 0 0 30.462 2H17.538a5 5 0 0 0-4.509 2.841l-1.408 2.466ZM20.5 14.5h1a1 1 0 0 0 0-2h-1V11h2a1 1 0 0 0 0-2h-3a1 1 0 0 0-1 1v7a1 1 0 0 0 1 1h3a1 1 0 0 0 0-2h-2v-1.5Zm4.038-4.225 2 7a1.001 1.001 0 0 0 1.924 0l2-7a1.002 1.002 0 0 0-.687-1.237 1.002 1.002 0 0 0-1.237.687L27.5 13.36l-1.038-3.635a1.002 1.002 0 0 0-1.237-.687c-.53.152-.838.706-.687 1.237Z" fill="#77bc3f" class="color000000 svgShape"></path>
  <path d="M28 29a.997.997 0 0 1-1 1h-1c-.796 0-1.559.316-2.121.879A2.996 2.996 0 0 0 23 33v2a1 1 0 0 0 2 0v-2a.997.997 0 0 1 1-1h1c.796 0 1.559-.316 2.121-.879a2.996 2.996 0 0 0 0-4.242A2.996 2.996 0 0 0 27 26h-1a.997.997 0 0 1-1-1v-3a1 1 0 0 0-2 0v3c0 .796.316 1.559.879 2.121A2.996 2.996 0 0 0 26 28h1a.997.997 0 0 1 1 1Z" fill="#77bc3f" class="color000000 svgShape"></path>
</svg>
