<svg xmlns="http://www.w3.org/2000/svg" enable-background="new 0 0 98 98" viewBox="0 0 98 98" id="Creativity">
  <path d="M64.3376 68.6103l1.9551.4229c.5737-2.6523 1.5142-5.2178 2.7949-7.625l-1.7656-.9395C65.9548 63.0385 64.9504 65.7778 64.3376 68.6103zM71.6658 57.3896l-1.5889-1.2139c-.502.6563-.9858 1.3462-1.4395 2.0503l1.6816 1.083C70.7434 58.6494 71.1965 58.0039 71.6658 57.3896zM27.1316 58.5444c.5132.7705.9971 1.5649 1.4385 2.3608l1.749-.9697c-.4673-.8428-.9795-1.6841-1.5225-2.4995L27.1316 58.5444zM34.2004 72.0297c-.3223-3.0767-1.1284-6.1279-2.3955-9.0703l-1.8369.791c1.1875 2.7568 1.9419 5.6123 2.2432 8.4873L34.2004 72.0297z" fill="#fafb63" class="color000000 svgShape"></path>
  <path d="M73.5168,38.998c-0.5449-12.3149-10.6016-22.5806-22.895-23.3701c-14.2764-0.9087-26.1631,10.4199-26.1631,24.4854
		c0,5.311,1.666,10.3633,4.8188,14.6104c4.6045,6.2026,7.0386,13.249,7.0386,20.3774v1.1392h2.1902
		c-0.2105,0.447-0.3372,0.9404-0.3372,1.4663c0,0.9648,0.398,1.8373,1.0365,2.4663c-0.6385,0.6292-1.0365,1.5017-1.0365,2.4668
		c0,0.9648,0.398,1.8372,1.0364,2.4663c-0.6384,0.6292-1.0364,1.5015-1.0364,2.4663c0,1.9111,1.5552,3.4663,3.4663,3.4663h0.9888
		c0.4831,3.0886,3.1539,5.4614,6.3759,5.4614c3.2216,0,5.8923-2.3728,6.3754-5.4614h0.9888c1.9111,0,3.4663-1.5552,3.4663-3.4663
		c0-0.9648-0.398-1.8372-1.0364-2.4663c0.6384-0.6292,1.0364-1.5015,1.0364-2.4663c0-0.9651-0.398-1.8376-1.0365-2.4668
		c0.6385-0.629,1.0365-1.5015,1.0365-2.4663c0-0.5259-0.1266-1.0193-0.3372-1.4663h2.1902v-1.1421
		c0-9.5513,3.2173-14.5015,6.3286-19.2886C71.0208,51.1811,73.8621,46.809,73.5168,38.998z M71.3481,37.2475l-3.8723,2.3748
		L60.538,35.713c0.0928-0.3141,0.1581-0.6398,0.1581-0.9835c0-0.3086-0.0429-0.6157-0.1242-0.9141l7.3731-5.7803
		C69.7161,30.779,70.9147,33.9069,71.3481,37.2475z M54.9611,44.6386l-2.1222-2.1284c0.2377-0.4805,0.3772-1.0029,0.3772-1.5405
		c0-0.425-0.0821-0.8342-0.226-1.2185l2.5132-1.9702c0.5138,0.2842,1.0892,0.4485,1.6927,0.4485
		c0.859,0,1.6365-0.3231,2.2463-0.8386l6.0831,3.4277l-6.5063,3.99C57.868,43.903,56.2977,43.7609,54.9611,44.6386z
		 M57.7957,48.7251c-0.7659,0.6046-1.5559,0.1447-1.6606,0.1265c-0.7965-0.4343-1.0258-1.4974-0.4453-2.231
		c0.5894-0.7437,1.8252-0.7231,2.3813,0.043C58.5589,47.3244,58.4245,48.226,57.7957,48.7251z M52.8779,55.1204
		c-0.0409-0.0016-0.0815-0.0106-0.1223-0.0106c-0.7466,0-1.443,0.2483-2.0314,0.6733l-7.0281-5.8446
		c0.3663-0.5608,0.5898-1.2122,0.5898-1.899c0-0.4429-0.093-0.8755-0.2518-1.2777l3.7229-2.9103
		c0.5729,0.3898,1.2461,0.6182,1.959,0.6182c0.6207,0,1.22-0.1855,1.7551-0.499l2.191,2.1974
		c-0.6227,1.4361-0.2171,2.9533,0.8302,3.9249L52.8779,55.1204z M54.2556,58.6098c0,0.8114-0.6594,1.5-1.5,1.5
		c-0.8271,0-1.5-0.6729-1.5-1.5c0-0.8191,0.6632-1.5,1.5-1.5C53.5687,57.1098,54.2556,57.7686,54.2556,58.6098z M40.7859,44.5395
		c-0.8318,0-1.6145,0.2953-2.2263,0.7996l-3.5767-3.8143c0.4003-0.5778,0.6429-1.2629,0.6429-1.9852
		c0-0.7429-0.2365-1.4297-0.6329-1.9969l3.2883-3.5543c0.5977,0.4753,1.3438,0.7715,2.1649,0.7715
		c0.5175,0,1.0179-0.1257,1.4771-0.3389l4.7912,4.7913c-0.3121,0.5332-0.4982,1.1343-0.4982,1.7576
		c0,0.4669,0.0996,0.9141,0.2737,1.3337l-3.6984,2.8916C42.2108,44.7815,41.5219,44.5395,40.7859,44.5395z M41.6716,49.2451
		c-0.6367,0.4722-1.5786,0.3354-2.0698-0.2837c-0.3574-0.4552-0.4291-1.1151-0.1255-1.6475
		c0.4921-0.9132,1.8017-1.0735,2.4922-0.1855C42.4606,47.7367,42.3953,48.7209,41.6716,49.2451z M38.946,31.2597
		c0-0.869,0.7044-1.5,1.5-1.5c0.8394,0,1.5,0.6845,1.5,1.5c0,0.8777-0.7062,1.5-1.5,1.5
		C39.6189,32.7597,38.946,32.0869,38.946,31.2597z M43.8422,30.4309l6.7004-3.5898c0.723,0.7533,1.746,1.1787,2.9706,1.0173
		l1.4885,4.1494c-0.8118,0.6539-1.3056,1.6448-1.3056,2.7217c0,0.5686,0.1508,1.1107,0.4086,1.6061l-2.3336,1.8295
		c-0.5927-0.4349-1.3064-0.6953-2.055-0.6953c-0.5417,0-1.0634,0.1384-1.5413,0.3748l-4.7606-4.7606
		c0.3332-0.5438,0.5319-1.1669,0.5319-1.8241C43.946,30.976,43.9066,30.6987,43.8422,30.4309z M50.8298,41.9721
		c-0.6108,0.6641-1.7207,0.6226-2.27-0.0459c-0.5184-0.6345-0.4358-1.5289,0.1489-2.0669c0.6493-0.5897,1.6713-0.506,2.2119,0.2261
		C51.3413,40.6382,51.3157,41.4264,50.8298,41.9721z M55.696,34.7295c0-0.8279,0.6735-1.5,1.5-1.5c0.8214,0,1.5,0.6699,1.5,1.5
		c0,0.8271-0.6729,1.5-1.5,1.5C56.3381,36.2295,55.696,35.5395,55.696,34.7295z M66.7864,26.4013l-7.2827,5.7095
		c-0.631-0.5551-1.4465-0.8813-2.3077-0.8813c-0.113,0-0.2238,0.0232-0.3362,0.0342l-1.5118-4.2147
		c0.7511-0.6554,1.2079-1.6171,1.2079-2.6393c0-1.8947-1.5162-3.4341-3.3976-3.4896l-1.1203-3.1216
		C57.9785,18.6095,63.2308,21.8221,66.7864,26.4013z M53.0559,22.9096c0.8271,0,1.5,0.6729,1.5,1.5
		c0,0.5723-0.3315,1.1021-0.8467,1.3501c-0.9498,0.4615-2.1533-0.2308-2.1533-1.3501
		C51.5559,23.5601,52.2532,22.9096,53.0559,22.9096z M49.8411,17.5991l1.3767,3.8359c-1.0124,0.6216-1.6619,1.7288-1.6619,2.9746
		c0,0.2202,0.0375,0.4358,0.0782,0.6497l-6.8015,3.6438c-0.6367-0.594-1.4884-0.9434-2.3865-0.9434
		c-0.6527,0-1.2755,0.1992-1.8223,0.5341l-4.8137-4.8141C38.0093,19.6433,43.6606,17.375,49.8411,17.5991z M32.3953,24.893
		l4.8895,4.8899c-0.2133,0.4596-0.3387,0.9596-0.3387,1.4768c0,0.3636,0.0715,0.7076,0.1749,1.0376l-3.6985,3.9978
		c-0.4019-0.1614-0.8379-0.2556-1.2968-0.2556c-1.7613,0-3.2086,1.3126-3.4503,3.0083l-2.2047,0.6094
		C26.5845,33.9731,28.8087,28.8017,32.3953,24.893z M33.6257,39.5395c0,0.8669-0.7091,1.5-1.5,1.5c-0.7371,0-1.4515-0.5247-1.5-1.5
		c0-0.8271,0.6729-1.5,1.5-1.5S33.6257,38.7124,33.6257,39.5395z M30.8831,53.5312c-2.575-3.469-4.0626-7.5251-4.3613-11.8131
		l2.4465-0.6761c0.5662,1.1885,1.7701,1.9976,3.1574,1.9976c0.4478,0,0.8818-0.095,1.2924-0.2594l4.012,4.2784
		c-0.0921,0.3147-0.1442,0.6443-0.1442,0.981c0,0.4385,0.0912,0.8684,0.2492,1.2728l-6.2087,4.8622
		C31.1744,53.9616,31.0397,53.7423,30.8831,53.5312z M49.0002,94.5c-2.115,0-3.8823-1.4832-4.3389-3.4614h8.6773
		C52.8822,93.0168,51.1152,94.5,49.0002,94.5z M56.3645,89.0385h-14.729c-0.8086,0-1.4663-0.6577-1.4663-1.4663
		s0.6577-1.4663,1.4663-1.4663h14.729c0.8086,0,1.4663,0.6577,1.4663,1.4663S57.1731,89.0385,56.3645,89.0385z M56.3645,84.1059
		h-14.729c-0.8086,0-1.4663-0.6577-1.4663-1.4663s0.6577-1.4668,1.4663-1.4668h14.729c0.8086,0,1.4663,0.6582,1.4663,1.4668
		S57.1731,84.1059,56.3645,84.1059z M56.3645,79.1728h-14.729c-0.8086,0-1.4663-0.6577-1.4663-1.4663s0.6577-1.4663,1.4663-1.4663
		h14.729c0.8086,0,1.4663,0.6577,1.4663,1.4663S57.1731,79.1728,56.3645,79.1728z M59.6926,74.2402c-8.0245,0-14.2823,0-21.3877,0
		c-0.1647-6.3977-2.1713-12.6985-5.8418-18.4158l6.3111-4.9424c0.5854,0.415,1.2773,0.6575,2.0117,0.6575
		c0.4752,0,0.9333-0.1052,1.361-0.2881l7.3489,6.1113c-0.1528,0.3975-0.2402,0.8159-0.2402,1.2471c0,1.9297,1.5703,3.5,3.5,3.5
		c0.6574,0,1.2745-0.1927,1.8179-0.5276l6.0799,5.0565C60.1068,68.8481,59.7509,71.3442,59.6926,74.2402z M61.2581,64.5395
		l-5.3486-4.4484c0.2181-0.4625,0.3461-0.9635,0.3461-1.4813c0-1.1617-0.5748-2.2156-1.4814-2.8533l1.5341-4.7773
		c0.5331,0.0864,1.0712,0.1502,1.9376-0.2253l6.486,6.4856C63.4376,59.3512,62.191,61.6938,61.2581,64.5395z M66.3352,54.7197
		c-0.1686,0.2595-0.3388,0.5217-0.5093,0.7856l-6.0498-6.0493c0.3698-0.5625,0.5898-1.2136,0.5898-1.9063
		c0-0.3818-0.0632-0.7548-0.1824-1.1089l11.3433-6.9565C71.7316,46.3984,69.2307,50.2651,66.3352,54.7197z" fill="#fafb63" class="color000000 svgShape"></path>
  <rect width="2" height="8.805" x="48" y="1.5" fill="#fafb63" class="color000000 svgShape"></rect>
  <rect width="8.805" height="2" x="27.968" y="9.358" transform="rotate(60 32.372 10.359)" fill="#fafb63" class="color000000 svgShape"></rect>
  <rect width="8.805" height="2" x="15.795" y="21.532" transform="rotate(-150 20.198 22.532)" fill="#fafb63" class="color000000 svgShape"></rect>
  <rect width="8.805" height="2" x="11.339" y="38.161" fill="#fafb63" class="color000000 svgShape"></rect>
  <rect width="8.805" height="2" x="15.795" y="54.79" transform="rotate(-30 20.193 55.788)" fill="#fafb63" class="color000000 svgShape"></rect>
  <rect width="8.805" height="2" x="73.4" y="54.79" transform="rotate(30 77.802 55.782)" fill="#fafb63" class="color000000 svgShape"></rect>
  <rect width="8.805" height="2" x="77.856" y="38.161" fill="#fafb63" class="color000000 svgShape"></rect>
  <rect width="8.805" height="2" x="73.4" y="21.532" transform="rotate(150 77.804 22.533)" fill="#fafb63" class="color000000 svgShape"></rect>
  <rect width="8.805" height="2" x="61.227" y="9.358" transform="rotate(-60 65.632 10.359)" fill="#fafb63" class="color000000 svgShape"></rect>
</svg>
