<svg xmlns="http://www.w3.org/2000/svg" viewBox="0 0 96 96" id="processor">
  <path fill="#ffb23b" d="M14.32 28.55v4.68h-11a2.34 2.34 0 010-4.68zM14.32 40v4.68h-11a2.34 2.34 0 010-4.68zM14.32 51.36V56h-11a2.34 2.34 0 010-4.68zM14.32 62.77v4.68h-11a2.34 2.34 0 010-4.68zM33.23 3.34v11H28.55v-11a2.34 2.34 0 114.68 0zM44.64 3.34v11H40v-11a2.34 2.34 0 014.68 0zM56 3.34v11H51.36v-11a2.34 2.34 0 114.68 0zM67.45 3.34v11H62.77v-11a2.34 2.34 0 014.68 0zM33.23 81.68v11a2.34 2.34 0 11-4.68 0v-11zM44.64 81.68v11a2.34 2.34 0 01-4.68 0v-11zM56 81.68v11a2.34 2.34 0 11-4.68 0v-11zM67.45 81.68v11a2.34 2.34 0 01-4.68 0v-11z"></path>
  <rect width="4.68" height="5.38" x="28.55" y="81.68" fill="#ff6c3b"></rect>
  <rect width="4.68" height="5.38" x="39.96" y="81.68" fill="#ff6c3b"></rect>
  <rect width="4.68" height="5.38" x="51.36" y="81.68" fill="#ff6c3b"></rect>
  <rect width="4.68" height="5.38" x="62.77" y="81.68" fill="#ff6c3b"></rect>
  <rect width="4.68" height="5.38" x="28.55" y="8.94" fill="#ff6c3b"></rect>
  <rect width="4.68" height="5.38" x="39.96" y="8.94" fill="#ff6c3b"></rect>
  <rect width="4.68" height="5.38" x="51.36" y="8.94" fill="#ff6c3b"></rect>
  <rect width="4.68" height="5.38" x="62.77" y="8.94" fill="#ff6c3b"></rect>
  <path fill="#ffb23b" d="M95 30.89a2.34 2.34 0 01-2.34 2.34h-11V28.55h11A2.34 2.34 0 0195 30.89zM95 42.3a2.34 2.34 0 01-2.34 2.34h-11V40h11A2.34 2.34 0 0195 42.3zM95 53.7A2.34 2.34 0 0192.66 56h-11V51.36h11A2.34 2.34 0 0195 53.7zM95 65.11a2.34 2.34 0 01-2.34 2.34h-11V62.77h11A2.34 2.34 0 0195 65.11z"></path>
  <rect width="5.38" height="4.68" x="81.68" y="62.77" fill="#ff6c3b"></rect>
  <rect width="5.38" height="4.68" x="81.68" y="51.36" fill="#ff6c3b"></rect>
  <rect width="5.38" height="4.68" x="81.68" y="39.96" fill="#ff6c3b"></rect>
  <rect width="5.38" height="4.68" x="81.68" y="28.55" fill="#ff6c3b"></rect>
  <rect width="5.38" height="4.68" x="8.94" y="62.77" fill="#ff6c3b"></rect>
  <rect width="5.38" height="4.68" x="8.94" y="51.36" fill="#ff6c3b"></rect>
  <rect width="5.38" height="4.68" x="8.94" y="39.96" fill="#ff6c3b"></rect>
  <rect width="5.38" height="4.68" x="8.94" y="28.55" fill="#ff6c3b"></rect>
  <rect width="67.36" height="67.36" x="14.32" y="14.32" fill="#1f8873" rx="2.92"></rect>
  <rect width="46.48" height="67.36" x="35.2" y="14.32" fill="#38b569" rx="2.92"></rect>
  <path fill="#88d369" d="M81.68,17.24v4.38a2.93,2.93,0,0,0-2.92-2.93H17.24a2.93,2.93,0,0,0-2.92,2.93V17.24a2.92,2.92,0,0,1,2.92-2.92H78.76A2.92,2.92,0,0,1,81.68,17.24Z"></path>
  <rect width="54.11" height="53.6" x="20.94" y="21.2" fill="#a7b0d7" rx="2.92"></rect>
  <rect width="43.6" height="44.11" x="26.2" y="25.94" fill="#7583b9" rx="2.09" transform="rotate(90 48 48)"></rect>
  <rect width="37.79" height="37.79" x="29.11" y="29.11" fill="#d9f1ff" rx="2.05"></rect>
  <rect width="19.79" height="19.79" x="38.11" y="38.11" fill="#fff" rx="2.24" transform="rotate(90 48 48)"></rect>
  <path fill="#d9f1ff" d="M66.89 60.39a4 4 0 004-4V39.59a4 4 0 00-4-4zM29.11 60.39a4 4 0 01-4-4V39.59a4 4 0 014-4z"></path>
  <path fill="#302d3d" d="M33.23 15.32H28.55a1 1 0 01-1-1v-11a3.34 3.34 0 116.68 0v11A1 1 0 0133.23 15.32zm-3.68-2h2.68v-10a1.34 1.34 0 10-2.68 0zM44.64 15.32H40a1 1 0 01-1-1v-11a3.34 3.34 0 016.68 0v11A1 1 0 0144.64 15.32zm-3.68-2h2.68v-10a1.34 1.34 0 00-2.68 0zM56 15.32H51.36a1 1 0 01-1-1v-11a3.34 3.34 0 116.68 0v11A1 1 0 0156 15.32zm-3.68-2H55v-10a1.34 1.34 0 10-2.68 0zM67.45 15.32H62.77a1 1 0 01-1-1v-11a3.34 3.34 0 016.68 0v11A1 1 0 0167.45 15.32zm-3.68-2h2.68v-10a1.34 1.34 0 00-2.68 0zM30.89 96a3.35 3.35 0 01-3.34-3.34v-11a1 1 0 011-1h4.68a1 1 0 011 1v11A3.35 3.35 0 0130.89 96zM29.55 82.68v10a1.34 1.34 0 002.68 0v-10zM42.3 96A3.35 3.35 0 0139 92.66v-11a1 1 0 011-1h4.68a1 1 0 011 1v11A3.35 3.35 0 0142.3 96zM41 82.68v10a1.34 1.34 0 002.68 0v-10zM53.7 96a3.35 3.35 0 01-3.34-3.34v-11a1 1 0 011-1H56a1 1 0 011 1v11A3.35 3.35 0 0153.7 96zM52.36 82.68v10a1.34 1.34 0 002.68 0v-10zM65.11 96a3.35 3.35 0 01-3.34-3.34v-11a1 1 0 011-1h4.68a1 1 0 011 1v11A3.35 3.35 0 0165.11 96zM63.77 82.68v10a1.34 1.34 0 002.68 0v-10zM92.66 34.23h-11a1 1 0 01-1-1V28.55a1 1 0 011-1h11a3.34 3.34 0 110 6.68zm-10-2h10a1.34 1.34 0 100-2.68h-10zM92.66 45.64h-11a1 1 0 01-1-1V40a1 1 0 011-1h11a3.34 3.34 0 110 6.68zm-10-2h10a1.34 1.34 0 100-2.68h-10zM92.66 57h-11a1 1 0 01-1-1V51.36a1 1 0 011-1h11a3.34 3.34 0 110 6.68zm-10-2h10a1.34 1.34 0 000-2.68h-10zM92.66 68.45h-11a1 1 0 01-1-1V62.77a1 1 0 011-1h11a3.34 3.34 0 110 6.68zm-10-2h10a1.34 1.34 0 100-2.68h-10zM14.32 34.23h-11a3.34 3.34 0 010-6.68h11a1 1 0 011 1v4.68A1 1 0 0114.32 34.23zm-11-4.68a1.34 1.34 0 000 2.68h10V29.55zM14.32 45.64h-11a3.34 3.34 0 010-6.68h11a1 1 0 011 1v4.68A1 1 0 0114.32 45.64zM3.34 41a1.34 1.34 0 000 2.68h10V41zM14.32 57h-11a3.34 3.34 0 010-6.68h11a1 1 0 011 1V56A1 1 0 0114.32 57zm-11-4.68a1.34 1.34 0 000 2.68h10V52.36zM14.32 68.45h-11a3.34 3.34 0 010-6.68h11a1 1 0 011 1v4.68A1 1 0 0114.32 68.45zm-11-4.68a1.34 1.34 0 000 2.68h10V63.77z"></path>
  <path fill="#302d3d" d="M78.76,82.68H17.24a3.93,3.93,0,0,1-3.92-3.92V17.24a3.93,3.93,0,0,1,3.92-3.92H78.76a3.93,3.93,0,0,1,3.92,3.92V78.76A3.93,3.93,0,0,1,78.76,82.68ZM17.24,15.32a1.92,1.92,0,0,0-1.92,1.92V78.76a1.92,1.92,0,0,0,1.92,1.92H78.76a1.92,1.92,0,0,0,1.92-1.92V17.24a1.92,1.92,0,0,0-1.92-1.92Z"></path>
  <path fill="#302d3d" d="M72.13,75.8H23.87a3.93,3.93,0,0,1-3.93-3.93V24.13a3.93,3.93,0,0,1,3.93-3.93H72.13a3.93,3.93,0,0,1,3.93,3.93V71.87A3.93,3.93,0,0,1,72.13,75.8ZM23.87,22.2a1.94,1.94,0,0,0-1.93,1.93V71.87a1.94,1.94,0,0,0,1.93,1.93H72.13a1.94,1.94,0,0,0,1.93-1.93V24.13a1.94,1.94,0,0,0-1.93-1.93Z"></path>
  <path fill="#302d3d" d="M64.84,67.89H31.16a3,3,0,0,1-3.05-3V31.16a3,3,0,0,1,3.05-3.05H64.84a3.06,3.06,0,0,1,3,3.05V64.84A3,3,0,0,1,64.84,67.89ZM31.16,30.11a1,1,0,0,0-1.05,1.05V64.84a1,1,0,0,0,1.05,1H64.84a1,1,0,0,0,1-1V31.16a1,1,0,0,0-1-1.05Z"></path>
  <path fill="#302d3d" d="M66.89 61.39a1 1 0 01-1-1V35.61a1 1 0 011-1 5 5 0 015 5V56.41A5 5 0 0166.89 61.39zm1-24.6V59.21a3 3 0 002-2.8V39.59A3 3 0 0067.89 36.79zM29.11 61.39a5 5 0 01-5-5V39.59a5 5 0 015-5 1 1 0 011 1V60.39A1 1 0 0129.11 61.39zm-1-24.6a3 3 0 00-2 2.8V56.41a3 3 0 002 2.8zM62.89 63.89a1 1 0 01-1-1V33.11a1 1 0 012 0V62.89A1 1 0 0162.89 63.89z"></path>
</svg>
