<svg xmlns="http://www.w3.org/2000/svg" viewBox="0 0 32 32" id="website">
  <g fill="#77bc3f" class="color000000 svgShape">
    <path d="M13.4 19.62a3.21 3.21 0 001.91 1.95 4.14 4.14 0 01-.54-1.47A4.24 4.24 0 0113.4 19.62zM17.54 21.57a3.18 3.18 0 001.91-1.95 4.27 4.27 0 01-1.36.48A4.34 4.34 0 0117.54 21.57zM14.62 18.57a6.81 6.81 0 01.06-.93c-.93.23-1.47.62-1.47.93s.54.69 1.47.93A7 7 0 0114.62 18.57zM15.4 20.21c.23.95.64 1.57 1 1.57s.79-.62 1-1.57a8.91 8.91 0 01-1 .07A8.62 8.62 0 0115.4 20.21zM15.31 15.56a3.23 3.23 0 00-1.91 2A4.5 4.5 0 0114.77 17 4.22 4.22 0 0115.31 15.56zM15.28 17.52a6.89 6.89 0 00-.08 1.05 6.76 6.76 0 00.08 1 8 8 0 001.15.09 7.87 7.87 0 001.14-.09 6.87 6.87 0 000-2.09 7.94 7.94 0 00-1.14-.08A8.09 8.09 0 0015.28 17.52zM17.46 16.92c-.24-1-.65-1.57-1-1.57s-.8.62-1 1.57a8.62 8.62 0 011-.07A8.91 8.91 0 0117.46 16.92zM18.23 18.57a7 7 0 01-.06.93c.94-.24 1.47-.62 1.47-.93s-.53-.7-1.47-.93A6.81 6.81 0 0118.23 18.57z" fill="#77bc3f" class="color000000 svgShape"></path>
    <path d="M28.8,6.76H4.05A1.11,1.11,0,0,0,3,7.87V24.61a1.11,1.11,0,0,0,1.1,1.11H28.8a1.11,1.11,0,0,0,1.1-1.11V7.87A1.11,1.11,0,0,0,28.8,6.76Zm-20.63,2a.76.76,0,0,1,.77.77.77.77,0,0,1-.77.78.78.78,0,0,1-.78-.78A.77.77,0,0,1,8.17,8.76Zm-2.29,0a.77.77,0,0,1,.78.77.78.78,0,0,1-.78.78.77.77,0,0,1-.77-.78A.76.76,0,0,1,5.88,8.76ZM16.43,22.37a3.8,3.8,0,1,1,3.79-3.8A3.8,3.8,0,0,1,16.43,22.37Zm11.32-9.88H5.48a.35.35,0,0,1-.34-.35.34.34,0,0,1,.34-.34H27.75a.34.34,0,0,1,.34.34A.35.35,0,0,1,27.75,12.49Zm0-2.65H19.93a.35.35,0,0,1-.34-.35.34.34,0,0,1,.34-.34h7.82a.34.34,0,0,1,.34.34A.35.35,0,0,1,27.75,9.84Z" fill="#77bc3f" class="color000000 svgShape"></path>
    <path d="M17.54,15.56A4.43,4.43,0,0,1,18.09,17a4.53,4.53,0,0,1,1.36.48A3.21,3.21,0,0,0,17.54,15.56Z" fill="#77bc3f" class="color000000 svgShape"></path>
  </g>
</svg>
